<?xml version="1.0" standalone="no"?>
<!DOCTYPE svg PUBLIC "-//W3C//DTD SVG 20010904//EN"
 "http://www.w3.org/TR/2001/REC-SVG-20010904/DTD/svg10.dtd">
<svg version="1.0" xmlns="http://www.w3.org/2000/svg"
 width="16.000000pt" height="16.000000pt" viewBox="0 0 16.000000 16.000000"
 preserveAspectRatio="xMidYMid meet">
<metadata>
Created by potrace 1.11, written by Peter Selinger 2001-2013
</metadata>
<g transform="translate(0.000000,16.000000) scale(0.020000,-0.020000)"
fill="#000000" stroke="none">
<path d="M234 775 c0 -14 2 -26 6 -26 3 -1 56 -2 118 -3 l113 -2 49 -50 50
-49 -90 -90 -90 -89 -160 164 c-160 162 -161 163 -181 143 -20 -19 -19 -20
154 -196 138 -141 177 -175 193 -171 31 8 234 217 234 240 0 11 -30 49 -68 87
l-68 67 -130 0 -130 0 0 -25z"/>
<path d="M84 357 c1 -129 2 -133 28 -161 21 -23 25 -34 18 -51 -16 -43 10
-109 52 -131 58 -30 124 -8 153 52 31 65 -5 137 -77 153 -19 5 -44 4 -56 0
-16 -6 -28 -4 -42 8 -18 16 -20 30 -20 140 l0 123 -29 0 -29 0 2 -133z m184
-203 c24 -17 29 -51 10 -76 -30 -39 -98 -15 -98 33 0 21 33 59 53 59 7 0 23
-7 35 -16z"/>
<path d="M629 394 l-83 -84 -21 20 c-22 20 -22 20 -40 0 -18 -20 -18 -21 10
-50 16 -17 38 -30 50 -30 12 0 46 26 85 65 35 35 67 62 71 60 4 -3 6 -27 4
-55 -3 -49 -3 -50 26 -50 l30 0 -3 96 c-3 88 -5 97 -24 105 -18 6 -35 -7 -105
-77z"/>
</g>
</svg>
